<svg width="200" height="200" viewBox="0 0 128 128" xmlns="http://www.w3.org/2000/svg">
  <rect width="128" height="128" fill="#F7DF1E"></rect>
  <path d="M89.6 98.6c2.6 4.3 6 7.5 12 7.5 5 0 8.2-2.5 8.2-6 0-4.2-3.3-5.7-8.8-8.1l-3-1.3c-8.7-3.7-14.5-8.3-14.5-18 0-9 6.9-15.8 17.7-15.8 7.7 0 13.2 2.7 17.2 9.7l-9.4 6c-2.1-3.7-4.3-5.2-7.7-5.2-3.5 0-5.7 2.2-5.7 5.2 0 3.6 2.2 5.1 7.3 7.3l3 1.3c10.2 4.4 16 8.9 16 19 0 10.9-8.6 16.8-20.1 16.8-11.2 0-18.4-5.3-22-12.3l9.8-5.6zm-42.5 1c1.9 3.4 3.6 6.2 7.7 6.2 3.9 0 6.4-1.5 6.4-7.4V58.4h12v40.1c0 12.1-7.1 17.6-17.4 17.6-9.3 0-14.7-4.8-17.4-10.6l8.7-5.9z" fill="#000"></path>
</svg>